# xmcd CD database file
#
# Track frame offsets:
#	150
#	12256
#	29319
#	48161
#	74111
#	85857
#
# Disc length: 1294 seconds
#
# Revision: 0
# Processed by: cddbd v1.5.2PL0 Copyright (c) Steve Scherf et al.
# Submitted via: CDex 1.51
#
DISCID=47050c06
DTITLE=Adrian Byron Burns - Demo-cracy
DYEAR=2004
DGENRE=Blues
TTITLE0=Massa John
TTITLE1=Get It On
TTITLE2=Get Inside Your Groove
TTITLE3=Finally... When You Fall
TTITLE4=Hendrixology
TTITLE5=Video
EXTD=YEAR: 2004
EXTT0=
EXTT1=
EXTT2=
EXTT3=
EXTT4=
EXTT5=
PLAYORDER=
